<svg width="90" height="90" viewBox="0 0 90 90" fill="none" xmlns="http://www.w3.org/2000/svg">
<path d="M58.3541 19.6527C60.6671 18.6004 63.7345 18.0131 66.0869 19.9785C68.4394 21.9439 68.3884 25.0566 67.7519 27.5042C67.0896 30.0369 65.6574 32.5765 64.1576 34.3562L54.4286 45.9005L63.0687 66.8967C63.4859 67.9088 63.6081 69.0316 63.4215 70.1391C63.235 71.2466 62.747 72.295 62.0124 73.1668L58.3696 77.4892C58.1782 77.7162 57.9418 77.9009 57.677 78.0306C57.4122 78.1603 57.1252 78.2318 56.836 78.2402C56.5468 78.2486 56.2623 78.1937 56.0023 78.0793C55.7423 77.9649 55.5131 77.7938 55.3304 77.5778L41.289 60.9539L34.2295 67.064L34.6951 74.4778C34.7203 74.8716 34.628 75.2698 34.43 75.6219C34.2319 75.974 33.9369 76.2641 33.5825 76.4555C33.228 76.6469 32.83 76.731 32.439 76.697C32.0479 76.6631 31.6814 76.5126 31.3859 76.2648L16.4402 63.7782C16.1438 63.5315 15.9313 63.1982 15.8298 62.8207C15.7283 62.4431 15.7424 62.0383 15.8701 61.6575C15.9979 61.2767 16.2337 60.9371 16.5475 60.6818C16.8614 60.4264 17.2392 60.2668 17.6331 60.2231L25.0498 59.3948L29.8645 51.4091L10.9836 40.5277C10.7382 40.3861 10.5291 40.191 10.3708 39.9559C10.2125 39.7208 10.1088 39.4514 10.067 39.1664C10.0251 38.8814 10.046 38.5876 10.1283 38.3054C10.2106 38.0232 10.3522 37.7594 10.5434 37.5323L14.1862 33.2098C14.9209 32.3381 15.8732 31.6776 16.9362 31.3023C17.9992 30.927 19.131 30.8518 20.2045 31.0852L42.4721 35.9112L52.201 24.3669C53.6982 22.5904 55.9697 20.7413 58.3541 19.6527ZM59.8455 23.2865C58.1051 24.0763 56.3262 25.5162 55.1902 26.8642L44.6467 39.375C44.4021 39.6652 44.0852 39.8852 43.7315 40.0103C43.3777 40.1355 43.001 40.161 42.6435 40.0838L19.1786 34.9983C18.8211 34.9211 18.4444 34.9466 18.0906 35.0718C17.7368 35.197 17.4199 35.4169 17.1753 35.7071L15.0877 38.1842L33.663 48.8904C34.1106 49.1486 34.4292 49.5798 34.5488 50.0894C34.6684 50.599 34.5793 51.1454 34.3011 51.6087L27.8881 62.2404C27.7201 62.5197 27.49 62.7578 27.2168 62.9348C26.9436 63.1117 26.6353 63.2224 26.3177 63.2576L22.687 63.6673L30.4169 70.1253L30.1857 66.4891C30.1655 66.1723 30.2212 65.8516 30.3483 65.5535C30.4754 65.2555 30.6702 64.9889 30.9164 64.7758L40.3186 56.6414C40.5217 56.4656 40.7554 56.3301 41.0064 56.2426C41.2574 56.1551 41.5207 56.1174 41.7812 56.1316C42.0417 56.1458 42.2944 56.2117 42.5247 56.3254C42.7551 56.4391 42.9586 56.5985 43.1237 56.7944L56.9356 73.1466L59.0232 70.6695C59.2678 70.3793 59.4303 70.0303 59.4927 69.6617C59.5551 69.2931 59.5148 68.9193 59.3765 68.5821L50.2717 46.457C50.1334 46.1198 50.0931 45.746 50.1555 45.3774C50.2179 45.0087 50.3804 44.6598 50.625 44.3696L61.1684 31.8589C62.3071 30.5077 63.4201 28.5222 63.8988 26.6728C64.401 24.7472 64.0877 23.6381 63.451 23.1062C62.8144 22.5743 61.6655 22.4566 59.8455 23.2865Z" fill="#FFFDF8"/>
</svg>
